<mxfile host="app.diagrams.net" modified="2024-03-12T14:07:05.929Z" agent="Mozilla/5.0 (Windows NT 10.0; Win64; x64) AppleWebKit/537.36 (KHTML, like Gecko) Chrome/122.0.0.0 Safari/537.36" etag="vRCw0JvbNgHc9yni8_5w" version="24.0.4" type="device">
  <diagram name="Page-1" id="CZfESln6BkbYoBk3MADh">
    <mxGraphModel dx="1400" dy="1796" grid="1" gridSize="10" guides="1" tooltips="1" connect="1" arrows="1" fold="1" page="1" pageScale="1" pageWidth="850" pageHeight="1100" math="0" shadow="0">
      <root>
        <mxCell id="0" />
        <mxCell id="1" parent="0" />
        <mxCell id="duHA3V1fV9wxp7i66Na2-36" value="" style="rounded=0;whiteSpace=wrap;html=1;" vertex="1" parent="1">
          <mxGeometry x="1380" y="-320" width="230" height="320" as="geometry" />
        </mxCell>
        <mxCell id="duHA3V1fV9wxp7i66Na2-30" style="edgeStyle=orthogonalEdgeStyle;rounded=0;orthogonalLoop=1;jettySize=auto;html=1;exitX=0.75;exitY=1;exitDx=0;exitDy=0;" edge="1" parent="1" source="duHA3V1fV9wxp7i66Na2-1" target="duHA3V1fV9wxp7i66Na2-9">
          <mxGeometry relative="1" as="geometry" />
        </mxCell>
        <mxCell id="duHA3V1fV9wxp7i66Na2-1" value="" style="rounded=0;whiteSpace=wrap;html=1;" vertex="1" parent="1">
          <mxGeometry x="753.5" y="-400" width="200" height="350" as="geometry" />
        </mxCell>
        <mxCell id="duHA3V1fV9wxp7i66Na2-2" value="S3" style="text;html=1;align=center;verticalAlign=middle;resizable=0;points=[];autosize=1;strokeColor=none;fillColor=none;" vertex="1" parent="1">
          <mxGeometry x="743.5" y="-430" width="40" height="30" as="geometry" />
        </mxCell>
        <mxCell id="duHA3V1fV9wxp7i66Na2-3" value="&lt;ul&gt;&lt;li&gt;&lt;span style=&quot;background-color: initial;&quot;&gt;Data set 1&lt;/span&gt;&lt;/li&gt;&lt;li&gt;Data set 2&lt;/li&gt;&lt;li&gt;Data set 3&lt;/li&gt;&lt;/ul&gt;" style="text;strokeColor=none;fillColor=none;html=1;whiteSpace=wrap;verticalAlign=middle;overflow=hidden;" vertex="1" parent="1">
          <mxGeometry x="783.5" y="-370" width="100" height="80" as="geometry" />
        </mxCell>
        <mxCell id="duHA3V1fV9wxp7i66Na2-4" value="Data set Folder" style="text;html=1;align=center;verticalAlign=middle;resizable=0;points=[];autosize=1;strokeColor=none;fillColor=none;" vertex="1" parent="1">
          <mxGeometry x="763.5" y="-382" width="110" height="30" as="geometry" />
        </mxCell>
        <mxCell id="duHA3V1fV9wxp7i66Na2-5" value="&lt;ul&gt;&lt;li&gt;&lt;span style=&quot;background-color: initial;&quot;&gt;User 1&lt;/span&gt;&lt;/li&gt;&lt;ul&gt;&lt;li&gt;Model 1&lt;/li&gt;&lt;ul&gt;&lt;li&gt;metrics.json&lt;/li&gt;&lt;li&gt;Images....&lt;/li&gt;&lt;/ul&gt;&lt;li&gt;Model 2&lt;/li&gt;&lt;li&gt;Model 3&lt;/li&gt;&lt;/ul&gt;&lt;/ul&gt;" style="text;strokeColor=none;fillColor=none;html=1;whiteSpace=wrap;verticalAlign=middle;overflow=hidden;" vertex="1" parent="1">
          <mxGeometry x="748.5" y="-320" width="210" height="150" as="geometry" />
        </mxCell>
        <mxCell id="duHA3V1fV9wxp7i66Na2-6" value="&lt;ul&gt;&lt;li&gt;&lt;span style=&quot;background-color: initial;&quot;&gt;User 2&lt;/span&gt;&lt;/li&gt;&lt;ul&gt;&lt;li&gt;Model 1&lt;/li&gt;&lt;ul&gt;&lt;li&gt;metrics.json&lt;/li&gt;&lt;li&gt;Images....&lt;/li&gt;&lt;/ul&gt;&lt;li&gt;Model 2&lt;/li&gt;&lt;li&gt;Model 3&lt;/li&gt;&lt;/ul&gt;&lt;/ul&gt;" style="text;strokeColor=none;fillColor=none;html=1;whiteSpace=wrap;verticalAlign=middle;overflow=hidden;" vertex="1" parent="1">
          <mxGeometry x="748.5" y="-209" width="210" height="150" as="geometry" />
        </mxCell>
        <mxCell id="duHA3V1fV9wxp7i66Na2-38" style="edgeStyle=orthogonalEdgeStyle;rounded=0;orthogonalLoop=1;jettySize=auto;html=1;exitX=1;exitY=0.5;exitDx=0;exitDy=0;exitPerimeter=0;" edge="1" parent="1" source="duHA3V1fV9wxp7i66Na2-7" target="duHA3V1fV9wxp7i66Na2-36">
          <mxGeometry relative="1" as="geometry" />
        </mxCell>
        <mxCell id="duHA3V1fV9wxp7i66Na2-7" value="" style="outlineConnect=0;dashed=0;verticalLabelPosition=bottom;verticalAlign=top;align=center;html=1;shape=mxgraph.aws3.s3;fillColor=#E05243;gradientColor=none;" vertex="1" parent="1">
          <mxGeometry x="963.5" y="-280" width="76.5" height="93" as="geometry" />
        </mxCell>
        <mxCell id="duHA3V1fV9wxp7i66Na2-8" value="" style="outlineConnect=0;dashed=0;verticalLabelPosition=bottom;verticalAlign=top;align=center;html=1;shape=mxgraph.aws3.ec2;fillColor=#F58534;gradientColor=none;" vertex="1" parent="1">
          <mxGeometry x="600" y="230" width="76.5" height="93" as="geometry" />
        </mxCell>
        <mxCell id="duHA3V1fV9wxp7i66Na2-9" value="" style="rounded=0;whiteSpace=wrap;html=1;" vertex="1" parent="1">
          <mxGeometry x="700" y="80" width="340" height="510" as="geometry" />
        </mxCell>
        <mxCell id="duHA3V1fV9wxp7i66Na2-25" style="edgeStyle=orthogonalEdgeStyle;rounded=0;orthogonalLoop=1;jettySize=auto;html=1;exitX=0.5;exitY=0;exitDx=0;exitDy=0;" edge="1" parent="1" source="duHA3V1fV9wxp7i66Na2-10" target="duHA3V1fV9wxp7i66Na2-24">
          <mxGeometry relative="1" as="geometry" />
        </mxCell>
        <mxCell id="duHA3V1fV9wxp7i66Na2-10" value="" style="rounded=0;whiteSpace=wrap;html=1;" vertex="1" parent="1">
          <mxGeometry x="1390" y="54" width="190" height="546" as="geometry" />
        </mxCell>
        <mxCell id="duHA3V1fV9wxp7i66Na2-11" value="UI" style="text;html=1;align=center;verticalAlign=middle;resizable=0;points=[];autosize=1;strokeColor=none;fillColor=none;" vertex="1" parent="1">
          <mxGeometry x="1390" y="20" width="40" height="30" as="geometry" />
        </mxCell>
        <mxCell id="duHA3V1fV9wxp7i66Na2-16" value="" style="edgeStyle=orthogonalEdgeStyle;rounded=0;orthogonalLoop=1;jettySize=auto;html=1;" edge="1" parent="1" source="duHA3V1fV9wxp7i66Na2-12" target="duHA3V1fV9wxp7i66Na2-15">
          <mxGeometry relative="1" as="geometry" />
        </mxCell>
        <mxCell id="duHA3V1fV9wxp7i66Na2-12" value="Submit DataSet" style="rounded=0;whiteSpace=wrap;html=1;" vertex="1" parent="1">
          <mxGeometry x="1420" y="90" width="120" height="60" as="geometry" />
        </mxCell>
        <mxCell id="duHA3V1fV9wxp7i66Na2-19" style="edgeStyle=orthogonalEdgeStyle;rounded=0;orthogonalLoop=1;jettySize=auto;html=1;exitX=0.25;exitY=1;exitDx=0;exitDy=0;entryX=1;entryY=0.5;entryDx=0;entryDy=0;" edge="1" parent="1" source="duHA3V1fV9wxp7i66Na2-15" target="duHA3V1fV9wxp7i66Na2-18">
          <mxGeometry relative="1" as="geometry" />
        </mxCell>
        <mxCell id="duHA3V1fV9wxp7i66Na2-15" value="s3 or drive" style="rounded=0;whiteSpace=wrap;html=1;" vertex="1" parent="1">
          <mxGeometry x="1190" y="-110" width="120" height="60" as="geometry" />
        </mxCell>
        <mxCell id="duHA3V1fV9wxp7i66Na2-18" value="push data to s3" style="rounded=0;whiteSpace=wrap;html=1;" vertex="1" parent="1">
          <mxGeometry x="900" y="120" width="120" height="60" as="geometry" />
        </mxCell>
        <mxCell id="duHA3V1fV9wxp7i66Na2-28" style="edgeStyle=orthogonalEdgeStyle;rounded=0;orthogonalLoop=1;jettySize=auto;html=1;exitX=0.5;exitY=0;exitDx=0;exitDy=0;entryX=0.25;entryY=1;entryDx=0;entryDy=0;" edge="1" parent="1" source="duHA3V1fV9wxp7i66Na2-20" target="duHA3V1fV9wxp7i66Na2-1">
          <mxGeometry relative="1" as="geometry" />
        </mxCell>
        <mxCell id="duHA3V1fV9wxp7i66Na2-20" value="&lt;b&gt;Train Pipeline:&lt;/b&gt;&lt;div&gt;&lt;ol&gt;&lt;li&gt;Load Data set&lt;/li&gt;&lt;li&gt;Train Model&lt;/li&gt;&lt;li&gt;calculate metrics&lt;/li&gt;&lt;li&gt;Explainable AI&lt;/li&gt;&lt;li&gt;Push images and information to S3&lt;/li&gt;&lt;/ol&gt;&lt;/div&gt;" style="rounded=0;whiteSpace=wrap;html=1;fillColor=#ffcd28;strokeColor=#d79b00;gradientColor=#ffa500;" vertex="1" parent="1">
          <mxGeometry x="723.5" y="140" width="150" height="160" as="geometry" />
        </mxCell>
        <mxCell id="duHA3V1fV9wxp7i66Na2-21" style="edgeStyle=orthogonalEdgeStyle;rounded=0;orthogonalLoop=1;jettySize=auto;html=1;exitX=0.5;exitY=0;exitDx=0;exitDy=0;entryX=0.538;entryY=1.009;entryDx=0;entryDy=0;entryPerimeter=0;" edge="1" parent="1" source="duHA3V1fV9wxp7i66Na2-18" target="duHA3V1fV9wxp7i66Na2-1">
          <mxGeometry relative="1" as="geometry" />
        </mxCell>
        <mxCell id="duHA3V1fV9wxp7i66Na2-23" style="edgeStyle=orthogonalEdgeStyle;rounded=0;orthogonalLoop=1;jettySize=auto;html=1;exitX=0;exitY=0.5;exitDx=0;exitDy=0;" edge="1" parent="1" source="duHA3V1fV9wxp7i66Na2-22" target="duHA3V1fV9wxp7i66Na2-20">
          <mxGeometry relative="1" as="geometry" />
        </mxCell>
        <mxCell id="duHA3V1fV9wxp7i66Na2-22" value="train model" style="rounded=0;whiteSpace=wrap;html=1;fillColor=#ffcd28;gradientColor=#ffa500;strokeColor=#d79b00;" vertex="1" parent="1">
          <mxGeometry x="1420" y="190" width="120" height="60" as="geometry" />
        </mxCell>
        <mxCell id="duHA3V1fV9wxp7i66Na2-26" style="edgeStyle=orthogonalEdgeStyle;rounded=0;orthogonalLoop=1;jettySize=auto;html=1;exitX=0.75;exitY=1;exitDx=0;exitDy=0;" edge="1" parent="1" source="duHA3V1fV9wxp7i66Na2-24" target="duHA3V1fV9wxp7i66Na2-10">
          <mxGeometry relative="1" as="geometry" />
        </mxCell>
        <mxCell id="duHA3V1fV9wxp7i66Na2-27" value="User login and regestration" style="edgeLabel;html=1;align=center;verticalAlign=middle;resizable=0;points=[];" vertex="1" connectable="0" parent="duHA3V1fV9wxp7i66Na2-26">
          <mxGeometry x="-0.5862" y="-1" relative="1" as="geometry">
            <mxPoint as="offset" />
          </mxGeometry>
        </mxCell>
        <mxCell id="duHA3V1fV9wxp7i66Na2-24" value="" style="shape=image;html=1;verticalAlign=top;verticalLabelPosition=bottom;labelBackgroundColor=#ffffff;imageAspect=0;aspect=fixed;image=https://cdn2.iconfinder.com/data/icons/whcompare-isometric-web-hosting-servers/50/database-128.png" vertex="1" parent="1">
          <mxGeometry x="1421" y="-187" width="128" height="128" as="geometry" />
        </mxCell>
        <mxCell id="duHA3V1fV9wxp7i66Na2-44" style="edgeStyle=orthogonalEdgeStyle;rounded=0;orthogonalLoop=1;jettySize=auto;html=1;exitX=0;exitY=0.75;exitDx=0;exitDy=0;entryX=1;entryY=0.75;entryDx=0;entryDy=0;" edge="1" parent="1" source="duHA3V1fV9wxp7i66Na2-29" target="duHA3V1fV9wxp7i66Na2-31">
          <mxGeometry relative="1" as="geometry" />
        </mxCell>
        <mxCell id="duHA3V1fV9wxp7i66Na2-29" value="show data sets" style="rounded=0;whiteSpace=wrap;html=1;" vertex="1" parent="1">
          <mxGeometry x="1421" y="290" width="120" height="60" as="geometry" />
        </mxCell>
        <mxCell id="duHA3V1fV9wxp7i66Na2-32" style="edgeStyle=orthogonalEdgeStyle;rounded=0;orthogonalLoop=1;jettySize=auto;html=1;exitX=1;exitY=0.5;exitDx=0;exitDy=0;" edge="1" parent="1" source="duHA3V1fV9wxp7i66Na2-31" target="duHA3V1fV9wxp7i66Na2-29">
          <mxGeometry relative="1" as="geometry" />
        </mxCell>
        <mxCell id="duHA3V1fV9wxp7i66Na2-31" value="Data set information API" style="rounded=0;whiteSpace=wrap;html=1;" vertex="1" parent="1">
          <mxGeometry x="900" y="290" width="120" height="60" as="geometry" />
        </mxCell>
        <mxCell id="duHA3V1fV9wxp7i66Na2-43" style="edgeStyle=orthogonalEdgeStyle;rounded=0;orthogonalLoop=1;jettySize=auto;html=1;exitX=0;exitY=0.75;exitDx=0;exitDy=0;entryX=1;entryY=0.75;entryDx=0;entryDy=0;" edge="1" parent="1" source="duHA3V1fV9wxp7i66Na2-33" target="duHA3V1fV9wxp7i66Na2-34">
          <mxGeometry relative="1" as="geometry" />
        </mxCell>
        <mxCell id="duHA3V1fV9wxp7i66Na2-33" value="Model Card info" style="rounded=0;whiteSpace=wrap;html=1;" vertex="1" parent="1">
          <mxGeometry x="1425" y="390" width="120" height="60" as="geometry" />
        </mxCell>
        <mxCell id="duHA3V1fV9wxp7i66Na2-35" style="edgeStyle=orthogonalEdgeStyle;rounded=0;orthogonalLoop=1;jettySize=auto;html=1;exitX=1;exitY=0.5;exitDx=0;exitDy=0;" edge="1" parent="1" source="duHA3V1fV9wxp7i66Na2-34" target="duHA3V1fV9wxp7i66Na2-33">
          <mxGeometry relative="1" as="geometry" />
        </mxCell>
        <mxCell id="duHA3V1fV9wxp7i66Na2-34" value="Model card info API" style="rounded=0;whiteSpace=wrap;html=1;" vertex="1" parent="1">
          <mxGeometry x="900" y="390" width="120" height="60" as="geometry" />
        </mxCell>
        <mxCell id="duHA3V1fV9wxp7i66Na2-37" value="File system" style="rounded=0;whiteSpace=wrap;html=1;" vertex="1" parent="1">
          <mxGeometry x="1400" y="-300" width="120" height="60" as="geometry" />
        </mxCell>
        <mxCell id="duHA3V1fV9wxp7i66Na2-42" style="edgeStyle=orthogonalEdgeStyle;rounded=0;orthogonalLoop=1;jettySize=auto;html=1;exitX=0;exitY=0.75;exitDx=0;exitDy=0;entryX=1;entryY=0.75;entryDx=0;entryDy=0;" edge="1" parent="1" source="duHA3V1fV9wxp7i66Na2-39" target="duHA3V1fV9wxp7i66Na2-40">
          <mxGeometry relative="1" as="geometry" />
        </mxCell>
        <mxCell id="duHA3V1fV9wxp7i66Na2-39" value="Home Page" style="rounded=0;whiteSpace=wrap;html=1;" vertex="1" parent="1">
          <mxGeometry x="1435" y="490" width="120" height="60" as="geometry" />
        </mxCell>
        <mxCell id="duHA3V1fV9wxp7i66Na2-41" style="edgeStyle=orthogonalEdgeStyle;rounded=0;orthogonalLoop=1;jettySize=auto;html=1;exitX=1;exitY=0.5;exitDx=0;exitDy=0;" edge="1" parent="1" source="duHA3V1fV9wxp7i66Na2-40" target="duHA3V1fV9wxp7i66Na2-39">
          <mxGeometry relative="1" as="geometry" />
        </mxCell>
        <mxCell id="duHA3V1fV9wxp7i66Na2-40" value="Home Page API" style="rounded=0;whiteSpace=wrap;html=1;" vertex="1" parent="1">
          <mxGeometry x="900" y="490" width="120" height="60" as="geometry" />
        </mxCell>
      </root>
    </mxGraphModel>
  </diagram>
</mxfile>
